<svg xmlns="http://www.w3.org/2000/svg" width="108" height="30" viewBox="0 0 108 30">
    <defs>
        <linearGradient id="a" x1="100%" x2="0%" y1="50%" y2="50%">
            <stop offset="2.524%" stop-color="#F68A4D"/>
            <stop offset="97.426%" stop-color="#C95B6E"/>
        </linearGradient>
    </defs>
    <g fill="none" fill-rule="nonzero">
        <path fill="url(#a)" d="M26.129 14.118l-4.685 2.873V11.91c0-.932-.488-1.796-1.286-2.278l-6.317-3.815a1.689 1.689 0 0 0-.6-.221 1.687 1.687 0 0 0-1.2.213L5.396 9.834a2.661 2.661 0 0 0-1.283 2.276v12.686L.746 22.84A1.5 1.5 0 0 1 0 21.542V8.458a1.5 1.5 0 0 1 .746-1.297L12.311.438a1.5 1.5 0 0 1 1.507 0l11.565 6.723a1.5 1.5 0 0 1 .746 1.297v5.66zm0 3.973v3.451a1.5 1.5 0 0 1-.746 1.297l-11.565 6.723a1.5 1.5 0 0 1-1.507 0L7.5 26.765v-5.911l4.564 2.665a1.694 1.694 0 0 0 1.708-2.924L7.5 16.93V12.52l5.436-3.292 5.12 3.093v6.831a2.177 2.177 0 0 0 3.316 1.857l4.757-2.917z"/>
        <path fill="#4A4A4A" d="M30.387 21.774a.464.464 0 0 1-.339-.145.464.464 0 0 1-.145-.339V8.71a.48.48 0 0 1 .484-.484h8.903c.142 0 .258.045.349.135.09.09.135.207.135.349v1.955a.48.48 0 0 1-.484.483h-5.98v2.846h5.593c.142 0 .258.048.349.145.09.096.135.216.135.358v1.935a.48.48 0 0 1-.484.484H33.31v4.374a.472.472 0 0 1-.136.349.472.472 0 0 1-.348.135h-2.439zm15.91.194c-1.549 0-2.768-.42-3.658-1.258-.89-.839-1.355-2.058-1.394-3.658v-.678c.052-1.522.526-2.713 1.423-3.57.897-.859 2.1-1.288 3.61-1.288 1.096 0 2.022.223 2.777.668a4.274 4.274 0 0 1 1.703 1.829c.38.774.571 1.664.571 2.67v.465a.48.48 0 0 1-.484.484h-6.193v.136c.025.606.174 1.097.445 1.47.27.375.664.562 1.18.562.323 0 .588-.068.794-.203.206-.136.394-.3.561-.494.116-.142.21-.229.28-.261a.873.873 0 0 1 .34-.048h2.4a.45.45 0 0 1 .3.106.35.35 0 0 1 .125.28c0 .336-.19.723-.57 1.162-.381.439-.933.82-1.655 1.142-.723.322-1.575.484-2.555.484zm1.626-6.252v-.039c0-.632-.146-1.132-.436-1.5-.29-.367-.693-.551-1.21-.551-.503 0-.9.184-1.19.551-.29.368-.435.868-.435 1.5v.04h3.27zm7.103 9.736a.394.394 0 0 1-.407-.407c0-.09.02-.174.058-.251l1.51-3.64-3.716-8.786a.742.742 0 0 1-.058-.233.638.638 0 0 1 .155-.3.379.379 0 0 1 .29-.125h2.207c.27 0 .458.135.56.406l2.207 5.632 2.265-5.632c.129-.27.322-.406.58-.406h2.168a.41.41 0 0 1 .3.125.389.389 0 0 1 .126.281c0 .052-.02.136-.058.252l-5.478 12.677c-.103.271-.296.407-.58.407h-2.13zm10.161-3.678a.472.472 0 0 1-.348-.135.472.472 0 0 1-.136-.349v-9.096c0-.142.045-.259.136-.349a.472.472 0 0 1 .348-.135h2.226c.142 0 .261.045.358.135.097.09.145.207.145.349v.735a3.791 3.791 0 0 1 1.345-1.026c.549-.258 1.171-.387 1.868-.387 1.136 0 2.058.384 2.768 1.152.71.767 1.064 1.842 1.064 3.222v5.4a.48.48 0 0 1-.484.484H72.04a.464.464 0 0 1-.339-.145.464.464 0 0 1-.145-.339v-5.284c0-.606-.149-1.074-.445-1.403-.297-.329-.723-.493-1.278-.493-.542 0-.967.164-1.277.493-.31.33-.465.797-.465 1.403v5.284a.48.48 0 0 1-.484.484h-2.419zm13.065 0a.419.419 0 0 1-.31-.116.419.419 0 0 1-.116-.31V8.652c0-.13.039-.233.116-.31a.419.419 0 0 1 .31-.116h.367c.13 0 .233.039.31.116.077.077.116.18.116.31v11.96h6.678c.142 0 .251.04.329.117.077.077.116.187.116.33v.29a.401.401 0 0 1-.126.31.452.452 0 0 1-.32.115h-7.47zm12.638.194c-.619 0-1.193-.13-1.722-.387a3.324 3.324 0 0 1-1.268-1.046 2.428 2.428 0 0 1-.474-1.451c0-.852.345-1.549 1.035-2.09.69-.542 1.623-.89 2.797-1.046l3.058-.425v-.678c0-.71-.216-1.255-.648-1.635-.433-.381-1.094-.571-1.984-.571-.658 0-1.197.129-1.616.387-.42.258-.687.568-.803.929-.052.155-.113.261-.184.32a.43.43 0 0 1-.281.086h-.271a.41.41 0 0 1-.3-.126.41.41 0 0 1-.126-.3c0-.283.13-.616.387-.996.258-.38.658-.713 1.2-.997.542-.284 1.207-.426 1.994-.426 1.38 0 2.361.33 2.942.987.58.658.87 1.458.87 2.4v6.445a.419.419 0 0 1-.115.31.419.419 0 0 1-.31.116h-.33a.419.419 0 0 1-.309-.116.419.419 0 0 1-.116-.31v-.91c-.284.427-.7.788-1.248 1.085-.549.296-1.274.445-2.178.445zm.194-1.123c.942 0 1.716-.31 2.322-.929.607-.62.91-1.51.91-2.67v-.659l-2.497.348c-1.058.142-1.858.388-2.4.736-.542.348-.813.787-.813 1.316 0 .594.249 1.052.746 1.374.496.323 1.074.484 1.732.484zm11.922 1.123c-1.419 0-2.503-.51-3.251-1.53v.91a.419.419 0 0 1-.116.31.419.419 0 0 1-.31.116H99a.419.419 0 0 1-.31-.116.419.419 0 0 1-.116-.31V8.458c0-.129.039-.232.116-.31a.419.419 0 0 1 .31-.116h.329c.13 0 .232.039.31.116.077.078.116.181.116.31v4.587c.761-1.02 1.845-1.529 3.251-1.529 1.394 0 2.423.455 3.088 1.365.664.91 1.016 2.016 1.054 3.319.013.129.02.31.02.542 0 .232-.007.413-.02.542-.038 1.303-.39 2.41-1.054 3.32-.665.909-1.694 1.364-3.088 1.364zm-.116-1.123c1.045 0 1.81-.332 2.294-.997.484-.664.745-1.519.784-2.564.013-.13.02-.31.02-.542 0-1.2-.233-2.184-.698-2.952-.464-.767-1.264-1.151-2.4-1.151-.684 0-1.258.161-1.722.484a3.048 3.048 0 0 0-1.045 1.229 3.898 3.898 0 0 0-.368 1.577l-.02.755.02.755c.039.916.316 1.713.832 2.39s1.284 1.016 2.303 1.016z"/>
    </g>
</svg>
