<?xml version="1.0" encoding="UTF-8"?>
<svg width="275px" height="83px" viewBox="0 0 275 83" version="1.1" xmlns="http://www.w3.org/2000/svg" xmlns:xlink="http://www.w3.org/1999/xlink">
    <!-- Generator: Sketch 58 (84663) - https://sketch.com -->
    <title>Group 3</title>
    <desc>Created with Sketch.</desc>
    <g id="Page-1" stroke="none" stroke-width="1" fill="none" fill-rule="evenodd">
        <g id="Group-3">
            <g id="Logo-V1-01" fill="#F88F62" fill-rule="nonzero">
                <g id="Logo-V1-03">
                    <path d="M71.612357,63.9880556 C73.1025172,63.1347142 74,61.5786211 74,59.8886705 L74,23.1113295 C74,21.4213789 73.0855835,19.8485536 71.612357,19.0119444 L39.387643,0.640006048 C37.8974828,-0.213335349 36.0855835,-0.213335349 34.5954233,0.640006048 L2.38764302,19.0119444 C0.897482838,19.8652858 0,21.4213789 0,23.1113295 L0,59.8719383 C0,61.5618889 0.914416476,63.1347142 2.38764302,63.9713235 L34.612357,82.359994 C36.1025172,83.2133353 37.9144165,83.2133353 39.4045767,82.359994 L46.8045767,78.1434835 L12.175286,58.3995061 L12.175286,58.3995061 L12.175286,58.3995061 C10.6851259,57.5461647 9.78764302,55.9900716 9.78764302,54.300121 L9.78764302,28.699879 C9.78764302,27.0099284 10.7020595,25.4371031 12.175286,24.6004939 L34.5954233,11.8003729 C36.0855835,10.9470315 37.8974828,10.9470315 39.387643,11.8003729 L61.824714,24.6004939 C63.3148741,25.4538353 64.212357,27.0099284 64.212357,28.699879 L64.212357,54.2833888 C64.212357,55.9733394 63.2979405,57.5461647 61.824714,58.3827739 L50.0897025,65.0756476 C48.5318078,65.9624534 48.5318078,68.1878339 50.0897025,69.0746397 L56.3720824,72.6553271" id="Path"></path>
                    <g id="Group" transform="translate(19.373391, 22.321970)">
                        <path d="M33.0300429,7.9507788 L20.1906724,0.650063676 C18.7000858,-0.200019592 16.8876681,-0.200019592 15.3970815,0.650063676 L2.54077253,7.9507788 C1.79547926,8.36748629 1.20263233,8.96754506 0.779170243,9.68428194 L17.7854077,19.3352273 L17.7854077,38.6537862 C18.6153934,38.6537862 19.4453791,38.4370984 20.1737339,38.0203909 L33.0131044,30.7196757 C34.503691,29.8695925 35.4016661,28.3194406 35.4016661,26.6359424 L35.4016661,12.0345121 C35.4183691,10.3510139 34.5206295,8.80086207 33.0300429,7.9507788 Z" id="Path"></path>
                        <path d="M0.779170243,9.68428194 C0.372646638,10.3843505 0.135507868,11.2010972 0.135507868,12.0511804 L0.135507868,26.6526107 C0.135507868,28.3361089 1.05018598,29.9029291 2.52383405,30.736344 L15.3632046,38.0370592 C16.1084979,38.4537667 16.9384835,38.6704545 17.7515308,38.6704545 L17.7515308,19.3518956 L0.779170243,9.68428194 Z" id="Path"></path>
                    </g>
                    <g id="Group" transform="translate(19.055794, 22.321970)">
                        <path d="M17.7109473,19.3352273 L0.775908167,9.68428194 C0.371086515,10.3843505 0.134940551,11.2010972 0.134940551,12.0345121 L0.134940551,26.6359424 C0.134940551,28.3194406 1.04578927,29.8862608 2.51326776,30.7196757 L15.2988849,38.0203909 C16.783231,38.8704741 18.5880609,38.8704741 20.0724069,38.0203909 L32.8580241,30.7196757 C34.3423702,29.8695925 35.2363513,28.3194406 35.2363513,26.6359424 L35.2363513,12.0345121 C35.2363513,11.1844289 35.0170729,10.3843505 34.5953837,9.68428194 L17.7109473,19.3352273 Z" id="Path"></path>
                        <path d="M34.6459864,9.68428194 C34.2411648,8.98421336 33.6339323,8.38415458 32.8917592,7.9507788 L20.1061421,0.650063676 C18.621796,-0.200019592 16.8169661,-0.200019592 15.3326201,0.650063676 L2.53013533,7.9507788 C1.7879623,8.36748629 1.19759739,8.96754506 0.775908167,9.68428194 L17.7109473,19.3352273 L34.6459864,9.68428194 Z" id="Path"></path>
                    </g>
                    <g id="Group" transform="translate(19.373391, 22.321970)">
                        <path d="M17.6881533,38.6537862 L17.6881533,19.3352273 L34.601397,9.68428194 C34.1970963,8.98421336 33.5906454,8.38415458 32.8494275,7.9507788 L20.0802654,0.650063676 C18.5978297,-0.200019592 16.7953227,-0.200019592 15.312887,0.650063676 L2.52687904,7.9507788 C1.04444334,8.80086207 0.151612742,10.3510139 0.151612742,12.0345121 L0.151612742,26.6359424 C0.151612742,28.3194406 1.0612892,29.8862608 2.52687904,30.7196757 L15.2960411,38.0203909 C16.037259,38.4370984 16.8627061,38.6537862 17.6881533,38.6537862 Z" id="Path"></path>
                        <path d="M17.6881533,38.6537862 C18.5136004,38.6537862 19.3390476,38.4370984 20.0634196,38.0203909 L32.8325816,30.7196757 C34.3150174,29.8695925 35.2078479,28.3194406 35.2078479,26.6359424 L35.2078479,12.0345121 C35.2078479,11.1844289 34.9888518,10.3843505 34.5677053,9.68428194 L17.6881533,19.3352273 L17.6881533,38.6537862 Z" id="Path"></path>
                    </g>
                </g>
            </g>
            <text id="Qubitro" font-family="Roboto-Regular, Roboto" font-size="60" font-weight="normal" fill="#000000">
                <tspan x="82" y="61">Qubitro</tspan>
            </text>
        </g>
    </g>
</svg>