<?xml version="1.0" encoding="utf-8"?>
<!-- Generator: Adobe Illustrator 23.0.3, SVG Export Plug-In . SVG Version: 6.00 Build 0)  -->
<svg version="1.1" id="Layer_1" xmlns="http://www.w3.org/2000/svg" xmlns:xlink="http://www.w3.org/1999/xlink" x="0px" y="0px"
	 viewBox="0 0 1080 1080" style="enable-background:new 0 0 1080 1080;" xml:space="preserve">
<style type="text/css">
	.st0{fill:#231F20;}
	.st1{fill:#F88F62;}
	.st2{fill:#FFFFFF;stroke:#FFFFFF;stroke-width:5.3861;stroke-miterlimit:10;}
	.st3{stroke:#000000;stroke-width:5.3861;stroke-miterlimit:10;}
	.st4{fill:#FFFFFF;}
</style>
<g>
	<g>
		<path class="st1" d="M744.4,674.4c8.8-5.1,14.1-14.4,14.1-24.5V430.1c0-10.1-5.4-19.5-14.1-24.5L554.1,295.8
			c-8.8-5.1-19.5-5.1-28.3,0L335.6,405.6c-8.8,5.1-14.1,14.4-14.1,24.5v219.7c0,10.1,5.4,19.5,14.1,24.5l190.3,109.9
			c8.8,5.1,19.5,5.1,28.3,0l43.7-25.2L393.4,641l0,0l0,0c-8.8-5.1-14.1-14.4-14.1-24.5V463.5c0-10.1,5.4-19.5,14.1-24.5l132.4-76.5
			c8.8-5.1,19.5-5.1,28.3,0L686.6,439c8.8,5.1,14.1,14.4,14.1,24.5v152.9c0,10.1-5.4,19.5-14.1,24.5l-69.3,40
			c-9.2,5.3-9.2,18.6,0,23.9l37.1,21.4"/>
	</g>
	<g>
		<path class="st1" d="M630,471.7l-75.8-43.8c-8.8-5.1-19.5-5.1-28.3,0L450,471.7c-4.4,2.5-7.9,6.1-10.4,10.4L540,540l0,115.9
			c4.9,0,9.8-1.3,14.1-3.8l75.8-43.8c8.8-5.1,14.1-14.4,14.1-24.5v-87.6C644.1,486.1,638.8,476.8,630,471.7z"/>
		<path class="st1" d="M439.6,482.1c-2.4,4.2-3.8,9.1-3.8,14.2v87.6c0,10.1,5.4,19.5,14.1,24.5l75.8,43.8c4.4,2.5,9.3,3.8,14.1,3.8
			l0-115.9L439.6,482.1z"/>
	</g>
	<g>
		<path class="st1" d="M540,540l-100.4-57.9c-2.4,4.2-3.8,9.1-3.8,14.1v87.6c0,10.1,5.4,19.5,14.1,24.5l75.8,43.8
			c8.8,5.1,19.5,5.1,28.3,0l75.8-43.8c8.8-5.1,14.1-14.4,14.1-24.5v-87.6c0-5.1-1.3-9.9-3.8-14.1L540,540z"/>
		<path class="st1" d="M640.4,482.1c-2.4-4.2-6-7.8-10.4-10.4l-75.8-43.8c-8.8-5.1-19.5-5.1-28.3,0L450,471.7
			c-4.4,2.5-7.9,6.1-10.4,10.4L540,540L640.4,482.1z"/>
	</g>
	<g>
		<path class="st1" d="M540,655.9l0-115.9l100.4-57.9c-2.4-4.2-6-7.8-10.4-10.4l-75.8-43.8c-8.8-5.1-19.5-5.1-28.3,0L450,471.7
			c-8.8,5.1-14.1,14.4-14.1,24.5v87.6c0,10.1,5.4,19.5,14.1,24.5l75.8,43.8C530.2,654.6,535.1,655.9,540,655.9z"/>
		<path class="st1" d="M540,655.9c4.9,0,9.8-1.3,14.1-3.8l75.8-43.8c8.8-5.1,14.1-14.4,14.1-24.5v-87.6c0-5.1-1.3-9.9-3.8-14.1
			L540,540L540,655.9z"/>
	</g>
</g>
</svg>
