<?xml version="1.0" encoding="UTF-8"?>
<svg width="130px" height="148px" viewBox="0 0 130 148" version="1.1" xmlns="http://www.w3.org/2000/svg" xmlns:xlink="http://www.w3.org/1999/xlink">
    <!-- Generator: Sketch 58 (84663) - https://sketch.com -->
    <title>Logo V1-01</title>
    <desc>Created with Sketch.</desc>
    <g id="Page-1" stroke="none" stroke-width="1" fill="none" fill-rule="evenodd">
        <g id="Logo-V1-01" fill="#F88F62" fill-rule="nonzero">
            <g id="Group">
                <path d="M125.696347,114.111871 C128.308219,112.593159 129.881279,109.823742 129.881279,106.816097 L129.881279,41.3923541 C129.881279,38.3847082 128.278539,35.5855131 125.696347,34.0965795 L69.2442922,1.39959759 C66.6324201,-0.119114688 63.456621,-0.119114688 60.8447489,1.39959759 L4.3630137,34.0965795 C1.75114155,35.6152918 0.178082192,38.3847082 0.178082192,41.3923541 L0.178082192,106.816097 C0.178082192,109.823742 1.78082192,112.622938 4.3630137,114.111871 L60.8447489,146.838632 C63.456621,148.357344 66.6324201,148.357344 69.2442922,146.838632 L82.2146119,139.334406 L21.5479452,104.195573 L21.5479452,104.195573 L21.5479452,104.195573 C18.9360731,102.676861 17.3630137,99.9074447 17.3630137,96.8997988 L17.3630137,51.3384306 C17.3630137,48.3307847 18.9657534,45.5315895 21.5479452,44.0426559 L60.8447489,21.2619718 C63.456621,19.7432596 66.6324201,19.7432596 69.2442922,21.2619718 L108.541096,44.0426559 C111.152968,45.5613682 112.726027,48.3307847 112.726027,51.3384306 L112.726027,96.8700201 C112.726027,99.877666 111.123288,102.676861 108.541096,104.165795 L87.9726027,116.077264 C85.2420091,117.655533 85.2420091,121.616097 87.9726027,123.194366 L98.9840183,129.567002" id="Path"></path>
                <g transform="translate(33.835616, 39.307847)" id="Path">
                    <path d="M57.9063927,14.4724346 L35.4086758,1.42937626 C32.7968037,-0.0893360161 29.6210046,-0.0893360161 27.0091324,1.42937626 L4.51141553,14.4724346 C3.20547945,15.2169014 2.16666667,16.2889336 1.42465753,17.5694165 L31.2237443,34.8112676 L31.2237443,69.3247485 C32.6780822,69.3247485 34.1324201,68.9376258 35.4086758,68.193159 L57.9063927,55.1501006 C60.5182648,53.6313883 62.0917294,50.8619718 62.0917294,47.854326 L62.0917294,21.7682093 C62.1210046,18.7605634 60.5182648,15.9613682 57.9063927,14.4724346 Z"></path>
                    <path d="M1.39497717,17.5396378 C0.682648402,18.7903421 0.267123288,20.249497 0.267123288,21.7682093 L0.267123288,47.854326 C0.267123288,50.8619718 1.86986301,53.661167 4.45205479,55.1501006 L27.0091324,68.193159 C28.3150685,68.9376258 29.7694064,69.3247485 31.1940639,69.3247485 L31.1940639,34.8112676 L1.39497717,17.5396378 Z"></path>
                </g>
                <g transform="translate(33.835616, 39.307847)" id="Path">
                    <path d="M31.1940639,34.8112676 L1.39497717,17.5694165 C0.682648402,18.8201207 0.267123288,20.2792757 0.267123288,21.7682093 L0.267123288,47.854326 C0.267123288,50.8619718 1.86986301,53.661167 4.45205479,55.1501006 L27.0091324,68.193159 C29.6210046,69.7118712 32.7968037,69.7118712 35.4086758,68.193159 L57.9063927,55.1501006 C60.5182648,53.6313883 62.0913242,50.8619718 62.0913242,47.854326 L62.0913242,21.7682093 C62.0913242,20.249497 61.7054795,18.8201207 60.9634703,17.5694165 L31.1940639,34.8112676 Z"></path>
                    <path d="M60.9931507,17.5396378 C60.2808219,16.2889336 59.2123288,15.2169014 57.9063927,14.4426559 L35.4086758,1.39959759 C32.7968037,-0.119114688 29.6210046,-0.119114688 27.0091324,1.39959759 L4.51141553,14.4426559 C3.20547945,15.1871227 2.16666667,16.2591549 1.42465753,17.5396378 L31.2237443,34.7814889 L60.9931507,17.5396378 Z"></path>
                </g>
                <g transform="translate(34.132420, 39.307847)" id="Path">
                    <path d="M30.8972603,69.3247485 L30.8972603,34.8112676 L60.696347,17.5694165 C59.9840183,16.3187123 58.9155251,15.2466801 57.609589,14.4724346 L35.1118721,1.42937626 C32.5,-0.0893360161 29.3242009,-0.0893360161 26.7123288,1.42937626 L4.21461187,14.4724346 C1.60273973,15.9911469 0.0296803653,18.7605634 0.0296803653,21.7682093 L0.0296803653,47.854326 C0.0296803653,50.8619718 1.63242009,53.661167 4.21461187,55.1501006 L26.7123288,68.193159 C27.9885845,68.9376258 29.4429224,69.3247485 30.8972603,69.3247485 Z"></path>
                </g>
            </g>
        </g>
    </g>
</svg>