<?xml version="1.0"?>
<svg xmlns="http://www.w3.org/2000/svg" xmlns:xlink="http://www.w3.org/1999/xlink" version="1.1" id="Capa_1" x="0px" y="0px" viewBox="0 0 533.778 533.778" style="enable-background:new 0 0 533.778 533.778;" xml:space="preserve" width="512px" height="512px"><g><g>
	<g>
		<path d="M287.635,55.312c0-11.436-9.306-20.742-20.742-20.742s-20.742,9.306-20.742,20.742s9.306,20.742,20.742,20.742    C278.329,76.054,287.635,66.748,287.635,55.312z M259.979,55.312c0-3.816,3.097-6.914,6.914-6.914c3.81,0,6.914,3.098,6.914,6.914    s-3.098,6.914-6.914,6.914C263.077,62.226,259.979,59.128,259.979,55.312z" data-original="#000000" class="active-path" data-old_color="#000000" fill="#9B9B9B"/>
		<path d="M493.241,402.174c-1.514-21.185-23.584-33.098-32.835-37.184c-2.171-8.429-9.23-15.834-13.054-19.353    c-2.012-13.42-11.526-77.113-14.575-101.064c-4.722-37.026-11.899-66.501-31.563-89.981c-0.809-0.968-2.787-3.332-8.484-3.429    c-0.622-6.506-2.683-8.408-3.609-9.265c-19.359-17.882-44.092-30.618-72.1-37.485l-6.458-87.653    C309.871,7.516,302.162,0,293.374,0h-52.962c-8.781,0-16.49,7.516-17.182,16.774l-6.458,87.632    c-28.017,6.865-52.76,19.603-72.128,37.5c-2.766,2.558-3.146,6.05-3.077,9.251c-0.049,0-0.111,0-0.173,0    c-5.966,0-8.013,2.447-8.822,3.429c-19.664,23.494-26.841,52.969-31.57,89.994c-3.049,23.944-12.563,87.637-14.575,101.057    c-3.824,3.52-10.89,10.925-13.054,19.353c-9.251,4.086-31.321,16.006-32.835,37.184c-6.493,9.321-26.585,39.307-26.585,53.011    c0,6.43,0,16.138,85.058,25.949c8.329,0.962,17.024,1.857,25.976,2.684l-4.929,17.153c-3.139,10.993,3.243,22.505,14.236,25.651    l22.153,6.354c1.901,0.546,3.816,0.802,5.697,0.802c9.023,0,17.348-5.932,19.955-15.03l8.7-30.347    c25.659,1.253,51.615,1.929,76.094,1.929c55.237,0,117.997-3.437,167.875-9.195c85.058-9.811,85.058-19.519,85.058-25.949    C519.826,441.481,499.726,411.494,493.241,402.174z M237.017,17.796c0.138-1.888,1.915-3.969,3.395-3.969h52.962    c1.48,0,3.257,2.081,3.402,3.955l6.169,83.718c-11.596-1.963-23.658-2.974-36.059-2.974c-12.393,0-24.448,1.009-36.038,2.969    L237.017,17.796z M266.88,112.353c44.554,0,84.235,13.787,111.905,38.837c0.048,0.263,0.089,0.574,0.124,0.92H155.451    c-0.027-0.429-0.041-0.885-0.061-1.294C183.046,126.001,222.553,112.353,266.88,112.353z M168.81,514.937    c-1.051,3.671-4.868,5.766-8.553,4.75l-22.153-6.354c-3.671-1.051-5.794-4.889-4.75-8.553l5.666-19.74    c12.232,1.002,24.843,1.875,37.612,2.608L168.81,514.937z M266.893,476.5c-114.919,0-223.312-13.697-238.876-23.197    c1.798-8.462,13.808-29.018,24.986-44.844c0.829-1.168,1.272-2.558,1.272-3.989c0-18.06,27.373-27.954,27.65-28.051    c2.759-0.975,4.619-3.588,4.619-6.52c0-4.412,6.416-11.81,10.751-15.419c1.307-1.079,2.171-2.614,2.427-4.294    c0.118-0.76,11.574-77.009,14.997-103.857c4.308-33.748,10.621-60.581,27.173-81.296c1.183,0.083,2.904,0.345,4.294,0.691    c0.539,0.131,1.106,0.207,1.68,0.214c0.007,0,0.007,0,0.014,0c0,0,0,0,0.007,0c0,0,0.007,0,0.021,0h237.968    c0.616,0,1.217-0.083,1.791-0.221c1.376-0.332,3.056-0.588,4.218-0.671c16.553,20.707,22.866,47.541,27.173,81.289    c3.423,26.847,14.879,103.103,14.997,103.864c0.263,1.687,1.127,3.222,2.441,4.301c3.741,3.098,10.738,10.793,10.738,15.412    c0,2.932,1.859,5.552,4.632,6.527c0.277,0.097,27.636,10.171,27.636,28.044c0,1.431,0.449,2.827,1.272,3.989    c11.187,15.812,23.19,36.368,24.995,44.831C490.206,462.803,381.812,476.5,266.893,476.5z" data-original="#000000" class="active-path" data-old_color="#000000" fill="#9B9B9B"/>
		<path d="M296.886,270.984c-13.503-8.013-29.323-10.288-44.513-6.409c-15.211,3.878-27.995,13.448-36.002,26.944    c-8.013,13.503-10.288,29.309-6.402,44.513c6.762,26.537,30.72,44.244,56.938,44.237c4.792,0,9.666-0.594,14.519-1.826    c15.204-3.872,27.996-13.441,36.002-26.944c8.006-13.503,10.288-29.309,6.402-44.513    C319.958,291.782,310.389,278.991,296.886,270.984z M305.53,344.432c-6.119,10.323-15.895,17.631-27.525,20.604    c-23.992,6.126-48.516-8.421-54.642-32.427c-2.966-11.629-1.224-23.722,4.895-34.038s15.895-17.631,27.525-20.604    c3.706-0.947,7.453-1.41,11.18-1.41c7.979,0,15.826,2.144,22.858,6.312c10.323,6.119,17.638,15.895,20.604,27.525    C313.391,322.023,311.656,334.116,305.53,344.432z" data-original="#000000" class="active-path" data-old_color="#000000" fill="#9B9B9B"/>
		<path d="M378.169,345.638l-9.369-5.407c-4.176-2.413-6.665-6.977-6.333-11.616c0.338-4.68,0.332-9.43-0.028-14.132    c-0.352-4.694,2.13-9.299,6.32-11.719l9.396-5.428c6.078-3.512,10.434-9.21,12.259-16.027c1.832-6.831,0.898-13.932-2.614-20.016    l-8.338-14.437c-3.512-6.078-9.21-10.434-16.027-12.266c-6.838-1.819-13.932-0.899-20.023,2.627l-9.32,5.379    c-4.224,2.441-9.417,2.212-13.586-0.574c-1.839-1.252-3.74-2.441-5.69-3.561c-1.956-1.134-3.941-2.185-5.918-3.146    c-4.515-2.198-7.315-6.603-7.315-11.491v-10.772c-0.007-14.534-11.837-26.364-26.384-26.364h-16.677    c-14.541,0.007-26.371,11.844-26.371,26.391l0.007,10.848c0,4.847-2.745,9.292-6.99,11.332c-4.266,2.053-8.38,4.432-12.245,7.059    c-3.858,2.607-9.044,2.752-13.227,0.325l-9.362-5.4c-12.618-7.274-28.769-2.932-36.043,9.659l-8.332,14.444    c-7.267,12.597-2.932,28.762,9.666,36.036l9.362,5.4c4.176,2.42,6.665,6.977,6.333,11.623c-0.345,4.681-0.332,9.431,0.028,14.126    c0.352,4.694-2.13,9.299-6.32,11.719l-9.403,5.435c-12.59,7.28-16.919,23.445-9.645,36.036l8.338,14.437    c7.273,12.591,23.432,16.919,36.043,9.652l9.327-5.386c4.224-2.44,9.424-2.233,13.6,0.588c1.832,1.238,3.726,2.42,5.683,3.547    c1.95,1.127,3.921,2.171,5.919,3.146c4.508,2.191,7.301,6.596,7.308,11.484v10.765c0,7.025,2.752,13.642,7.744,18.634    c4.992,4.992,11.602,7.737,18.62,7.737c0.007,0,0.014,0,0.027,0.001h16.67c14.54,0,26.377-11.837,26.377-26.391l-0.007-10.841    c0-4.847,2.745-9.299,6.99-11.339c4.252-2.046,8.366-4.418,12.252-7.052c3.851-2.621,9.037-2.759,13.22-0.332l9.369,5.407    c12.584,7.26,28.763,2.932,36.03-9.659l8.338-14.451C395.095,369.07,390.76,352.905,378.169,345.638z M375.845,374.766    l-8.338,14.444c-3.457,5.995-11.139,8.048-17.14,4.598l-9.362-5.407c-8.746-5.047-19.691-4.723-27.905,0.871    c-3.319,2.247-6.845,4.273-10.482,6.022c-9.002,4.335-14.824,13.676-14.824,23.805l0.007,10.841    c0,6.928-5.628,12.556-12.549,12.556h-16.677c0,0,0,0-0.007,0c-3.326,0-6.465-1.307-8.85-3.685    c-2.385-2.378-3.692-5.531-3.692-8.857v-10.772c-0.007-10.219-5.787-19.38-15.073-23.909c-1.715-0.83-3.402-1.729-5.068-2.69    c-1.673-0.968-3.304-1.991-4.874-3.042c-4.584-3.09-9.811-4.653-15.031-4.653c-4.55,0-9.092,1.189-13.207,3.552l-9.32,5.379    c-5.981,3.464-13.683,1.404-17.147-4.591l-8.338-14.437c-3.464-5.995-1.404-13.683,4.584-17.147l9.396-5.428    c8.76-5.061,13.939-14.776,13.192-24.746c-0.305-4.017-0.318-8.083-0.028-12.079c0.719-9.894-4.467-19.553-13.213-24.6l-9.362-5.4    c-5.988-3.457-8.055-11.152-4.598-17.14l8.332-14.444c3.457-5.995,11.146-8.076,17.147-4.598l9.362,5.4    c8.746,5.034,19.698,4.709,27.912-0.864c3.305-2.247,6.831-4.273,10.475-6.029c9.002-4.335,14.824-13.669,14.824-23.798    l-0.007-10.848c0-6.921,5.628-12.549,12.549-12.556h16.67c6.921,0,12.549,5.628,12.556,12.542v10.765    c0,10.212,5.774,19.381,15.094,23.93c1.708,0.823,3.381,1.715,5.054,2.683c1.666,0.961,3.291,1.977,4.874,3.042    c8.573,5.781,19.401,6.189,28.237,1.086l9.32-5.379v-0.007c2.87-1.667,6.244-2.13,9.514-1.231    c3.256,0.871,5.974,2.939,7.633,5.822l8.338,14.437c3.464,5.995,1.404,13.69-4.584,17.147l-9.396,5.428    c-8.76,5.061-13.939,14.776-13.192,24.746c0.305,4.024,0.318,8.09,0.028,12.086c-0.719,9.895,4.467,19.554,13.206,24.594    l9.362,5.421C377.242,361.083,379.302,368.771,375.845,374.766z" data-original="#000000" class="active-path" data-old_color="#000000" fill="#9B9B9B"/>
	</g>
</g></g> </svg>
