<svg width="47.99999999999999" height="47.99999999999999" xmlns="http://www.w3.org/2000/svg">

 <g>
  <title>background</title>
  <rect fill="none" id="canvas_background" height="402" width="582" y="-1" x="-1"/>
 </g>
 <g>
  <title>Layer 1</title>
  <path fill="#9b9b9b" id="svg_1" fill-rule="evenodd" d="m23.927431,45c-11.598,0 -21,-9.402 -21,-21s9.402,-21 21,-21s21,9.402 21,21s-9.402,21 -21,21zm11.633,-6c-0.157,-0.231 -0.355,-0.518 -0.514,-0.742c-0.277,-0.394 -0.554,-0.788 -0.802,-1.178c-0.012,-0.018 -1.382,-1.856 -6.317,-2.08c-1.717,0 -2.965,-1.288 -2.968,-3.066l-0.032,-0.934c0,-0.135 -0.016,0.148 0,0l0,-1l1,-1c0.731,-0.339 1.66,-0.909 2.395,-1.464l0.135,-0.093c0.581,-0.369 1.393,-1.146 1.47,-1.443l0.036,-0.381c0.373,-1.923 0.964,-5.421 0.964,-6.619c0,-4.71 -2.29,-7 -7,-7c-4.775,0 -7,2.224 -7,7c0,1.23 0.591,4.711 0.963,6.616l0.035,0.352c0.063,0.313 0.799,1.054 1.449,1.462l0.098,0.062c0.788,0.551 1.73,1.165 2.455,1.508l1,1l0,1c0.014,0.138 0,-0.146 0,0l-0.033,0.934c0,1.775 -1.246,3.064 -2.883,3.064c-0.001,0 -0.002,0 -0.003,0c-4.956,0.201 -6.393,2.077 -6.395,2.077c-0.252,0.396 -0.528,0.789 -0.807,1.184c-0.157,0.224 -0.355,0.51 -0.513,0.741c3.217,2.498 7.245,4 11.633,4s8.417,-1.502 11.634,-4zm-11.633,-34c-10.493,0 -19,8.507 -19,19c0,5.386 2.25,10.237 5.85,13.694c0.382,-0.565 0.79,-1.129 1.15,-1.694c0,0 1.67,-2.743 8,-3c0.645,0 0.967,-0.422 0.967,-1.066l0.001,0c-0.001,-0.521 -0.001,-0.934 -0.001,-0.934c0,-0.13 -0.021,-0.247 -0.027,-0.373c-0.724,-0.342 -1.564,-0.814 -2.539,-1.494c0,0 -2.4,-1.476 -2.4,-3.133c0,0 -1,-5.116 -1,-7c0,-4.644 1.986,-9 9,-9c6.92,0 9,4.356 9,9c0,1.838 -1,7 -1,7c0,1.611 -2.4,3.133 -2.4,3.133c-0.955,0.721 -1.801,1.202 -2.543,1.546c-0.005,0.109 -0.023,0.209 -0.023,0.321c0,0 -0.001,0.413 -0.001,0.934l0.001,0c-0.002,0.644 0.32,1.066 0.965,1.066c6.424,0.288 8,3 8,3c0.36,0.565 0.767,1.129 1.149,1.694c3.6,-3.457 5.851,-8.308 5.851,-13.694c0,-10.493 -8.507,-19 -19,-19z" clip-rule="evenodd"/>
 </g>
</svg>