<svg width="40" height="40" viewBox="0 0 40 40" fill="none" xmlns="http://www.w3.org/2000/svg">
<circle cx="20" cy="20" r="20" fill="#F0F1F7"/>
<path d="M21.6 24V28.8H16.8" stroke="#9FA2B4" stroke-width="1.5" stroke-linecap="round" stroke-linejoin="round"/>
<path d="M19.2 26.3999V28.7999" stroke="#9FA2B4" stroke-width="1.5" stroke-linecap="round" stroke-linejoin="round"/>
<path d="M16.8 24.48V28.8H12V25.2" stroke="#9FA2B4" stroke-width="1.5" stroke-linecap="round" stroke-linejoin="round"/>
<path d="M16.2 25.2001L19.2 21.6001H13.8L10.8 25.2001H16.2Z" stroke="#9FA2B4" stroke-width="1.5" stroke-linecap="round" stroke-linejoin="round"/>
<path d="M22.8 25.2001L19.2 21.6001" stroke="#9FA2B4" stroke-width="1.5" stroke-linecap="round" stroke-linejoin="round"/>
<path d="M19.7735 15.5998L23.9999 10.7998H18.5999L14.3735 15.5998H19.7735Z" stroke="#9FA2B4" stroke-width="1.5" stroke-linecap="round" stroke-linejoin="round"/>
<path d="M28.8 15.5998L24 10.7998" stroke="#9FA2B4" stroke-width="1.5" stroke-linecap="round" stroke-linejoin="round"/>
<path d="M20.3999 14.8887V19.1999" stroke="#9FA2B4" stroke-width="1.5" stroke-linecap="round" stroke-linejoin="round"/>
<path d="M27.6 14.3999V25.1999H25.2" stroke="#9FA2B4" stroke-width="1.5" stroke-linecap="round" stroke-linejoin="round"/>
<path d="M15.6001 19.2001V15.6001" stroke="#9FA2B4" stroke-width="1.5" stroke-linecap="round" stroke-linejoin="round"/>
<path d="M22.8 16.2002V16.8002" stroke="#9FA2B4" stroke-width="1.5" stroke-linecap="round" stroke-linejoin="round"/>
<path d="M25.2 16.2002V16.8002" stroke="#9FA2B4" stroke-width="1.5" stroke-linecap="round" stroke-linejoin="round"/>
<path d="M22.8 19.2002V19.8002" stroke="#9FA2B4" stroke-width="1.5" stroke-linecap="round" stroke-linejoin="round"/>
<path d="M25.2 19.2002V19.8002" stroke="#9FA2B4" stroke-width="1.5" stroke-linecap="round" stroke-linejoin="round"/>
<path d="M25.2 22.2002V22.8002" stroke="#9FA2B4" stroke-width="1.5" stroke-linecap="round" stroke-linejoin="round"/>
</svg>
