<?xml version="1.0"?>
<svg xmlns="http://www.w3.org/2000/svg" height="512px" viewBox="-11 0 512 512.001" width="512px"><g><path d="m463.097656 67.144531h-8.773437v-33.894531c0-18.335938-14.914063-33.25-33.246094-33.25-18.335937 0-33.25 14.914062-33.25 33.25v33.894531h-21.433594v-33.894531c0-18.335938-14.914062-33.25-33.246093-33.25-18.335938 0-33.25 14.914062-33.25 33.25v33.894531h-21.433594v-33.894531c0-18.335938-14.914063-33.25-33.25-33.25-18.335938 0-33.25 14.914062-33.25 33.25v33.894531h-21.433594v-33.894531c0-18.335938-14.914062-33.25-33.246094-33.25-18.335937 0-33.25 14.914062-33.25 33.25v33.894531h-21.433594v-33.894531c0-18.335938-14.914062-33.25-33.25-33.25-18.332031 0-33.246093 14.914062-33.246093 33.25v33.894531h-8.773438c-15.070312 0-27.332031 12.261719-27.332031 27.332031v156.886719c0 4.15625 3.371094 7.527344 7.527344 7.527344 4.160156 0 7.527344-3.371094 7.527344-7.527344v-77.300781h344.816406c4.160156 0 7.527344-3.371094 7.527344-7.527344 0-4.160156-3.367188-7.53125-7.527344-7.53125h-344.816406v-64.527344c0-6.765624 5.507812-12.273437 12.277343-12.273437h8.773438v4.261719c0 18.335937 14.914062 33.25 33.246093 33.25 18.335938 0 33.25-14.914063 33.25-33.25v-4.261719h21.433594v4.261719c0 18.335937 14.914063 33.25 33.25 33.25 18.332032 0 33.246094-14.914063 33.246094-33.25v-4.261719h21.433594v4.261719c0 18.335937 14.914062 33.25 33.25 33.25 18.335937 0 33.25-14.914063 33.25-33.25v-4.261719h21.433594v4.261719c0 18.335937 14.914062 33.25 33.246093 33.25 18.335938 0 33.25-14.914063 33.25-33.25v-4.261719h21.433594v4.261719c0 18.335937 14.914063 33.25 33.25 33.25 18.332031 0 33.246094-14.914063 33.246094-33.25v-4.261719h8.773437c6.769532 0 12.277344 5.507813 12.277344 12.273437v64.53125h-85.394531c-4.15625 0-7.527344 3.371094-7.527344 7.527344s3.371094 7.527344 7.527344 7.527344h85.394531v308.15625c0 8.121094-6.605469 14.726562-14.726562 14.726562h-430.867188c-8.121094 0-14.726562-6.605468-14.726562-14.726562v-200.746094c0-4.15625-3.367188-7.527344-7.527344-7.527344-4.15625 0-7.527344 3.371094-7.527344 7.527344v200.746094c0 16.421875 13.359375 29.78125 29.78125 29.78125h430.867188c16.421874 0 29.78125-13.359375 29.78125-29.78125v-387.742188c0-15.070312-12.261719-27.332031-27.332032-27.332031zm-375.550781 19.320313c0 10.03125-8.160156 18.195312-18.195313 18.195312-10.03125 0-18.191406-8.164062-18.191406-18.195312v-53.214844c0-10.03125 8.160156-18.195312 18.191406-18.195312 10.035157 0 18.195313 8.164062 18.195313 18.195312zm87.929687 0c0 10.03125-8.160156 18.195312-18.191406 18.195312s-18.195312-8.164062-18.195312-18.195312v-53.214844c0-10.03125 8.164062-18.195312 18.195312-18.195312s18.191406 8.164062 18.191406 18.195312zm87.933594 0c0 10.03125-8.164062 18.195312-18.195312 18.195312s-18.195313-8.164062-18.195313-18.195312v-53.214844c0-10.03125 8.164063-18.195312 18.195313-18.195312s18.195312 8.164062 18.195312 18.195312zm87.929688 0c0 10.03125-8.160156 18.195312-18.191406 18.195312-10.035157 0-18.195313-8.164062-18.195313-18.195312v-53.214844c0-10.03125 8.160156-18.195312 18.195313-18.195312 10.03125 0 18.191406 8.164062 18.191406 18.195312zm87.929687 0c0 10.03125-8.160156 18.195312-18.191406 18.195312-10.035156 0-18.195313-8.164062-18.195313-18.195312v-53.214844c0-10.03125 8.160157-18.195312 18.195313-18.195312 10.03125 0 18.191406 8.164062 18.191406 18.195312zm0 0" data-original="#000000" class="active-path" data-old_color="#000000" fill="#9B9B9B"/><path d="m245.214844 432.078125c57.484375 0 104.253906-46.769531 104.253906-104.253906 0-57.488281-46.769531-104.257813-104.253906-104.257813s-104.253906 46.769532-104.253906 104.257813c0 57.484375 46.769531 104.253906 104.253906 104.253906zm0-193.453125c49.183594 0 89.199218 40.011719 89.199218 89.199219 0 49.183593-40.015624 89.199219-89.199218 89.199219s-89.199219-40.015626-89.199219-89.199219c0-49.1875 40.015625-89.199219 89.199219-89.199219zm0 0" data-original="#000000" class="active-path" data-old_color="#000000" fill="#9B9B9B"/><path d="m162.53125 231.953125c1.65625 0 3.3125-.539063 4.707031-1.644531 3.242188-2.597656 3.761719-7.335938 1.164063-10.589844-2.601563-3.242188-7.335938-3.761719-10.578125-1.164062-3.242188 2.601562-3.773438 7.335937-1.175781 10.578124 1.488281 1.859376 3.675781 2.820313 5.882812 2.820313zm0 0" data-original="#000000" class="active-path" data-old_color="#000000" fill="#9B9B9B"/><path d="m245.003906 202.96875c4.15625-.011719 7.519532-3.382812 7.507813-7.546875 0-4.15625-3.382813-7.519531-7.539063-7.507813-4.15625 0-7.515625 3.382813-7.507812 7.535157 0 4.15625 3.371094 7.519531 7.519531 7.519531zm0 0" data-original="#000000" class="active-path" data-old_color="#000000" fill="#9B9B9B"/><path d="m215.535156 206.300781c.554688 0 1.125-.058593 1.6875-.191406 4.054688-.921875 6.585938-4.96875 5.652344-9.011719-.925781-4.054687-4.960938-6.585937-9.015625-5.660156-4.054687.933594-6.582031 4.964844-5.648437 9.023438.789062 3.480468 3.890624 5.839843 7.324218 5.839843zm0 0" data-original="#000000" class="active-path" data-old_color="#000000" fill="#9B9B9B"/><path d="m187.582031 216.136719c1.105469 0 2.230469-.238281 3.285157-.75 3.730468-1.820313 5.296874-6.316407 3.492187-10.058594-1.820313-3.742187-6.3125-5.308594-10.058594-3.492187-3.742187 1.804687-5.308593 6.3125-3.492187 10.054687 1.292968 2.679687 3.984375 4.246094 6.773437 4.246094zm0 0" data-original="#000000" class="active-path" data-old_color="#000000" fill="#9B9B9B"/><path d="m108.742188 296.851562c-.921876 4.054688 1.625 8.089844 5.679687 9.003907.566406.132812 1.117187.191406 1.667969.191406 3.445312 0 6.546875-2.378906 7.335937-5.871094.914063-4.054687-1.625-8.089843-5.679687-9.003906-4.054688-.914063-8.089844 1.625-9.003906 5.679687zm0 0" data-original="#000000" class="active-path" data-old_color="#000000" fill="#9B9B9B"/><path d="m123.488281 355.75c-.921875-4.054688-4.957031-6.59375-9.011719-5.660156-4.054687.921875-6.585937 4.957031-5.664062 9.011718.792969 3.484376 3.894531 5.851563 7.328125 5.851563.554687 0 1.125-.058594 1.6875-.191406 4.054687-.921875 6.582031-4.96875 5.660156-9.011719zm0 0" data-original="#000000" class="active-path" data-old_color="#000000" fill="#9B9B9B"/><path d="m125.96875 392.914062c1.101562 0 2.214844-.238281 3.269531-.75 3.746094-1.808593 5.3125-6.3125 3.503907-10.058593-1.808594-3.742188-6.3125-5.308594-10.058594-3.492188-3.742188 1.804688-5.308594 6.3125-3.492188 10.046875 1.296875 2.691406 3.984375 4.253906 6.777344 4.253906zm0 0" data-original="#000000" class="active-path" data-old_color="#000000" fill="#9B9B9B"/><path d="m129.097656 263.742188c-3.742187-1.808594-8.238281-.230469-10.046875 3.511718-1.796875 3.753906-.21875 8.25 3.523438 10.046875 1.054687.511719 2.167969.753907 3.261719.753907 2.800781 0 5.492187-1.578126 6.785156-4.277344 1.808594-3.742188.230468-8.238282-3.523438-10.035156zm0 0" data-original="#000000" class="active-path" data-old_color="#000000" fill="#9B9B9B"/><path d="m274.453125 206.199219c3.441406 0 6.554687-2.367188 7.335937-5.871094.914063-4.054687-1.636718-8.078125-5.679687-8.992187-.011719 0-.011719 0-.011719 0-4.054687-.914063-8.078125 1.625-8.992187 5.679687-.914063 4.054687 1.625 8.089844 5.691406 9.003906.550781.121094 1.113281.179688 1.65625.179688zm0 0" data-original="#000000" class="active-path" data-old_color="#000000" fill="#9B9B9B"/><path d="m105.300781 327.976562c0 4.167969 3.382813 7.527344 7.539063 7.519532 4.15625 0 7.515625-3.375 7.515625-7.527344 0-4.167969-3.382813-7.527344-7.535157-7.527344-4.15625.007813-7.519531 3.378906-7.519531 7.535156zm0 0" data-original="#000000" class="active-path" data-old_color="#000000" fill="#9B9B9B"/><path d="m357.75 381.984375c-1.808594 3.746094-.242188 8.25 3.5 10.058594 1.054688.5 2.167969.742187 3.261719.742187 2.800781 0 5.492187-1.566406 6.796875-4.253906 1.804687-3.746094.230468-8.242188-3.511719-10.046875-3.746094-1.808594-8.242187-.242187-10.046875 3.5zm0 0" data-original="#000000" class="active-path" data-old_color="#000000" fill="#9B9B9B"/><path d="m156.859375 426.699219c-2.589844 3.253906-2.054687 7.988281 1.195313 10.578125 1.386718 1.105468 3.039062 1.636718 4.6875 1.636718 2.207031 0 4.40625-.964843 5.890624-2.828124 2.589844-3.253907 2.058594-7.992188-1.195312-10.582032-3.25-2.589844-7.988281-2.054687-10.578125 1.195313zm0 0" data-original="#000000" class="active-path" data-old_color="#000000" fill="#9B9B9B"/><path d="m137.066406 404.570312c-3.242187 2.597657-3.773437 7.335938-1.171875 10.578126 1.484375 1.867187 3.671875 2.828124 5.878907 2.828124 1.65625 0 3.3125-.539062 4.699218-1.644531 3.25-2.601562 3.773438-7.335937 1.183594-10.589843h-.007812c-2.589844-3.242188-7.328126-3.761719-10.582032-1.171876zm0 0" data-original="#000000" class="active-path" data-old_color="#000000" fill="#9B9B9B"/><path d="m146.292969 239.523438c-3.253907-2.589844-7.992188-2.046876-10.582031 1.203124-2.585938 3.253907-2.054688 7.988282 1.195312 10.578126 1.386719 1.105468 3.042969 1.636718 4.6875 1.636718 2.21875 0 4.40625-.972656 5.890625-2.839844 2.589844-3.253906 2.050781-7.988281-1.191406-10.578124zm0 0" data-original="#000000" class="active-path" data-old_color="#000000" fill="#9B9B9B"/><path d="m181.058594 443.902344c-1.796875 3.746094-.222656 8.242187 3.523437 10.046875 1.054688.503906 2.167969.742187 3.261719.742187 2.800781 0 5.492188-1.566406 6.785156-4.265625 1.808594-3.742187.230469-8.238281-3.511718-10.046875-3.753907-1.796875-8.25-.230468-10.058594 3.523438zm0 0" data-original="#000000" class="active-path" data-old_color="#000000" fill="#9B9B9B"/><path d="m361.109375 263.351562c-3.742187 1.816407-5.296875 6.3125-3.480469 10.054688 1.292969 2.679688 3.984375 4.246094 6.773438 4.246094 1.105468 0 2.21875-.242188 3.28125-.753906 3.746094-1.816407 5.300781-6.320313 3.484375-10.066407-1.808594-3.734375-6.3125-5.296875-10.058594-3.480469zm0 0" data-original="#000000" class="active-path" data-old_color="#000000" fill="#9B9B9B"/><path d="m374.320312 364.800781c3.429688 0 6.542969-2.367187 7.335938-5.859375.914062-4.054687-1.625-8.089844-5.671875-9.003906-4.0625-.921875-8.089844 1.617188-9.011719 5.671875s1.617188 8.089844 5.671875 9.003906c.558594.128907 1.121094.1875 1.675781.1875zm0 0" data-original="#000000" class="active-path" data-old_color="#000000" fill="#9B9B9B"/><path d="m208.488281 455.273438c-.910156 4.054687 1.628907 8.082031 5.679688 9.003906.566406.132812 1.125.191406 1.667969.191406 3.445312 0 6.546874-2.367188 7.339843-5.871094.921875-4.054687-1.617187-8.082031-5.671875-9.003906-4.054687-.914062-8.089844 1.625-9.015625 5.679688zm0 0" data-original="#000000" class="active-path" data-old_color="#000000" fill="#9B9B9B"/><path d="m372.5625 290.742188c-4.054688.933593-6.585938 4.964843-5.660156 9.023437h.007812c.792969 3.480469 3.894532 5.839844 7.328125 5.839844.550781 0 1.125-.058594 1.6875-.191407 4.054688-.933593 6.585938-4.96875 5.660157-9.023437-.933594-4.054687-4.980469-6.582031-9.023438-5.648437zm0 0" data-original="#000000" class="active-path" data-old_color="#000000" fill="#9B9B9B"/><path d="m385.128906 327.828125c0-.050781 0-.101563 0-.152344 0-.058593 0-.109375 0-.171875-.011718-4.152344-3.394531-7.515625-7.546875-7.507812-4.15625 0-7.519531 3.382812-7.507812 7.539062v.191406.101563c0 4.152344 3.371093 7.527344 7.527343 7.527344s7.527344-3.375 7.527344-7.527344zm0 0" data-original="#000000" class="active-path" data-old_color="#000000" fill="#9B9B9B"/><path d="m323.082031 425.425781c-3.242187 2.597657-3.777343 7.335938-1.1875 10.578125 1.488281 1.867188 3.683594 2.832032 5.890625 2.832032 1.648438 0 3.304688-.535157 4.6875-1.648438h.011719c3.242187-2.589844 3.773437-7.324219 1.175781-10.578125-2.589844-3.242187-7.328125-3.773437-10.578125-1.183594zm0 0" data-original="#000000" class="active-path" data-old_color="#000000" fill="#9B9B9B"/><path d="m342.851562 405.652344c-2.585937 3.253906-2.058593 7.988281 1.1875 10.578125 1.382813 1.105469 3.050782 1.648437 4.695313 1.648437 2.207031 0 4.398437-.976562 5.882813-2.832031 2.597656-3.25 2.066406-7.988281-1.1875-10.578125-3.25-2.601562-7.988282-2.066406-10.578126 1.183594zm0 0" data-original="#000000" class="active-path" data-old_color="#000000" fill="#9B9B9B"/><path d="m327.558594 231.683594c2.21875 0 4.414062-.972656 5.898437-2.839844 2.582031-3.253906 2.050781-7.988281-1.210937-10.578125-3.253906-2.582031-7.992188-2.046875-10.570313 1.203125-2.589843 3.261719-2.046875 7.988281 1.203125 10.578125 1.386719 1.105469 3.03125 1.636719 4.679688 1.636719zm0 0" data-original="#000000" class="active-path" data-old_color="#000000" fill="#9B9B9B"/><path d="m343.855469 239.203125c-3.25 2.597656-3.773438 7.34375-1.171875 10.585937 1.492187 1.847657 3.671875 2.8125 5.878906 2.8125 1.65625 0 3.3125-.53125 4.707031-1.648437 3.242188-2.597656 3.765625-7.335937 1.164063-10.578125 0-.007812 0-.007812 0-.007812-2.597656-3.242188-7.335938-3.765626-10.578125-1.164063zm0 0" data-original="#000000" class="active-path" data-old_color="#000000" fill="#9B9B9B"/><path d="m302.445312 215.945312c2.800782 0 5.492188-1.574218 6.785157-4.273437 1.796875-3.746094.222656-8.242187-3.523438-10.039063-3.753906-1.804687-8.242187-.21875-10.046875 3.523438-1.796875 3.742188-.222656 8.242188 3.535156 10.046875 1.042969.5 2.15625.742187 3.25.742187zm0 0" data-original="#000000" class="active-path" data-old_color="#000000" fill="#9B9B9B"/><path d="m273.066406 449.5625c-4.054687.925781-6.585937 4.960938-5.671875 9.015625.804688 3.492187 3.90625 5.851563 7.339844 5.851563.550781 0 1.113281-.0625 1.675781-.183594 4.054688-.933594 6.59375-4.957032 5.671875-9.011719-.925781-4.054687-4.960937-6.59375-9.015625-5.671875zm0 0" data-original="#000000" class="active-path" data-old_color="#000000" fill="#9B9B9B"/><path d="m237.757812 460.210938c.011719 4.15625 3.382813 7.53125 7.539063 7.53125 4.15625-.011719 7.527344-3.382813 7.515625-7.539063 0-4.15625-3.371094-7.527344-7.527344-7.519531-4.15625 0-7.527344 3.375-7.527344 7.527344zm0 0" data-original="#000000" class="active-path" data-old_color="#000000" fill="#9B9B9B"/><path d="m299.433594 440.328125c-3.742188 1.808594-5.308594 6.304687-3.5 10.046875 1.292968 2.691406 3.984375 4.257812 6.785156 4.257812 1.09375 0 2.207031-.242187 3.269531-.753906 3.746094-1.804687 5.308594-6.300781 3.503907-10.046875-1.808594-3.742187-6.316407-5.320312-10.058594-3.503906zm0 0" data-original="#000000" class="active-path" data-old_color="#000000" fill="#9B9B9B"/><path d="m227.445312 366.269531c1.402344 1.671875 3.460938 2.652344 5.640626 2.6875h.121093c2.136719 0 4.175781-.910156 5.601563-2.5l59.421875-66.226562c2.773437-3.09375 2.515625-7.851563-.578125-10.628907-3.09375-2.777343-7.855469-2.515624-10.628906.574219l-53.628907 59.773438-14.226562-16.9375c-2.675781-3.183594-7.421875-3.597657-10.609375-.925781-3.179688 2.675781-3.59375 7.421874-.921875 10.605468zm0 0" data-original="#000000" class="active-path" data-old_color="#000000" fill="#9B9B9B"/></g> </svg>
