<?xml version="1.0" encoding="UTF-8"?>
<svg width="48px" height="48px" viewBox="0 0 48 48" version="1.1" xmlns="http://www.w3.org/2000/svg" xmlns:xlink="http://www.w3.org/1999/xlink">
    <!-- Generator: Sketch 58 (84663) - https://sketch.com -->
    <title>error</title>
    <desc>Created with Sketch.</desc>
    <g id="Page-1" stroke="none" stroke-width="1" fill="none" fill-rule="evenodd">
        <g id="success" transform="translate(-111.000000, 0.000000)" fill="#9B9B9B" fill-rule="nonzero">
            <g id="error" transform="translate(111.000000, 0.000000)">
                <path d="M24,0 C10.7667692,0 0,10.7658462 0,24 C0,37.2341538 10.7667692,48 24,48 C37.2332308,48 48,37.2341538 48,24 C48,10.7658462 37.2332308,0 24,0 Z M24,46.1538462 C11.7849231,46.1538462 1.84615385,36.2150769 1.84615385,24 C1.84615385,11.7849231 11.7849231,1.84615385 24,1.84615385 C36.2150769,1.84615385 46.1538462,11.7849231 46.1538462,24 C46.1538462,36.2150769 36.2150769,46.1538462 24,46.1538462 Z" id="Shape"></path>
                <path d="M32.9603077,15.0396923 C32.5993846,14.6787692 32.016,14.6787692 31.6550769,15.0396923 L24,22.6947692 L16.3449231,15.0396923 C15.984,14.6787692 15.4006154,14.6787692 15.0396923,15.0396923 C14.6787692,15.4006154 14.6787692,15.984 15.0396923,16.3449231 L22.6947692,24 L15.0396923,31.6550769 C14.6787692,32.016 14.6787692,32.5993846 15.0396923,32.9603077 C15.2196923,33.1403077 15.456,33.2307692 15.6923077,33.2307692 C15.9286154,33.2307692 16.1649231,33.1403077 16.3449231,32.9603077 L24,25.3052308 L31.6550769,32.9603077 C31.8350769,33.1403077 32.0713846,33.2307692 32.3076923,33.2307692 C32.544,33.2307692 32.7803077,33.1403077 32.9603077,32.9603077 C33.3212308,32.5993846 33.3212308,32.016 32.9603077,31.6550769 L25.3052308,24 L32.9603077,16.3449231 C33.3212308,15.984 33.3212308,15.4006154 32.9603077,15.0396923 Z" id="Path"></path>
            </g>
        </g>
    </g>
</svg>