<svg id="SvgjsSvg1001" width="288" height="288" xmlns="http://www.w3.org/2000/svg" version="1.1" xmlns:xlink="http://www.w3.org/1999/xlink" xmlns:svgjs="http://svgjs.com/svgjs"><defs id="SvgjsDefs1002"></defs><g id="SvgjsG1008" transform="matrix(0.9167,0,0,0.9167,11.988660569953936,12.001375907707228)"><svg xmlns="http://www.w3.org/2000/svg" width="288" height="288" viewBox="0 0 6.35 6.35"><path fill="#979494" style="line-height:normal;font-variant-ligatures:normal;font-variant-position:normal;font-variant-caps:normal;font-variant-numeric:normal;font-variant-alternates:normal;font-feature-settings:normal;text-indent:0;text-align:start;text-decoration-line:none;text-decoration-style:solid;text-decoration-color:#000;text-transform:none;text-orientation:mixed;shape-padding:0;isolation:auto;mix-blend-mode:normal" d="m 0.76367336,0.52734375 a 0.26460978,0.26460978 0 0 0 -0.15625,0.45312501 L 5.369142,5.7441405 A 0.26516504,0.26516504 0 1 0 5.7441421,5.3691407 L 0.98047024,0.60742188 A 0.26460978,0.26460978 0 0 0 0.76367336,0.52734375 Z" color="#000" font-family="sans-serif" font-weight="400" overflow="visible" paint-order="stroke fill markers" white-space="normal" class="color00001d svgShape"></path><path fill="#979494" style="line-height:normal;font-variant-ligatures:normal;font-variant-position:normal;font-variant-caps:normal;font-variant-numeric:normal;font-variant-alternates:normal;font-feature-settings:normal;text-indent:0;text-align:start;text-decoration-line:none;text-decoration-style:solid;text-decoration-color:#000;text-transform:none;text-orientation:mixed;shape-padding:0;isolation:auto;mix-blend-mode:normal" d="M 5.5507827,0.52734375 A 0.26460978,0.26460978 0 0 0 5.369142,0.60742188 L 0.60742336,5.3691407 A 0.26460978,0.26460978 0 1 0 0.98047024,5.7441405 L 5.7441421,0.98046876 A 0.26460978,0.26460978 0 0 0 5.5507827,0.52734375 Z" color="#000" font-family="sans-serif" font-weight="400" overflow="visible" paint-order="stroke fill markers" white-space="normal" class="color00001d svgShape"></path></svg></g></svg>