<?xml version="1.0" encoding="UTF-8"?>
<svg width="48px" height="48px" viewBox="0 0 48 48" version="1.1" xmlns="http://www.w3.org/2000/svg" xmlns:xlink="http://www.w3.org/1999/xlink">
    <!-- Generator: Sketch 58 (84663) - https://sketch.com -->
    <title>download</title>
    <desc>Created with Sketch.</desc>
    <g id="Page-1" stroke="none" stroke-width="1" fill="none" fill-rule="evenodd">
        <g id="download" fill="#9B9B9B" fill-rule="nonzero">
            <path d="M46.5457627,23.412357 C45.7830508,23.412357 45.1728814,24.0713959 45.1728814,24.8951945 L45.1728814,38.383524 C45.1728814,42.0521739 42.4067797,45.028833 39.020339,45.028833 L8.89830508,45.028833 C5.50169492,45.028833 2.74576271,42.0411899 2.74576271,38.383524 L2.74576271,24.6755149 C2.74576271,23.8517162 2.13559322,23.1926773 1.37288136,23.1926773 C0.610169492,23.1926773 0,23.8517162 0,24.6755149 L0,38.383524 C0,43.6887872 3.99661017,47.994508 8.89830508,47.994508 L39.020339,47.994508 C43.9322034,47.994508 47.9186441,43.6778032 47.9186441,38.383524 L47.9186441,24.8951945 C47.9186441,24.0823799 47.3084746,23.412357 46.5457627,23.412357 Z" id="Path"></path>
            <path d="M22.9932203,36.2196796 C23.2576271,36.5052632 23.6135593,36.6590389 23.959322,36.6590389 C24.3050847,36.6590389 24.6610169,36.5162471 24.9254237,36.2196796 L33.6508475,26.7954233 C34.1898305,26.2132723 34.1898305,25.2796339 33.6508475,24.6974828 C33.1118644,24.1153318 32.2474576,24.1153318 31.7084746,24.6974828 L25.3322034,31.5954233 L25.3322034,1.51029748 C25.3322034,0.686498856 24.7220339,0.0274599542 23.959322,0.0274599542 C23.1966102,0.0274599542 22.5864407,0.686498856 22.5864407,1.51029748 L22.5864407,31.5954233 L16.2,24.6974828 C15.6610169,24.1153318 14.7966102,24.1153318 14.2576271,24.6974828 C13.7186441,25.2796339 13.7186441,26.2132723 14.2576271,26.7954233 L22.9932203,36.2196796 Z" id="Path"></path>
        </g>
    </g>
</svg>