<?xml version="1.0" encoding="UTF-8"?>
<svg width="48px" height="48px" viewBox="0 0 48 48" version="1.1" xmlns="http://www.w3.org/2000/svg" xmlns:xlink="http://www.w3.org/1999/xlink">
    <!-- Generator: Sketch 58 (84663) - https://sketch.com -->
    <title>edit</title>
    <desc>Created with Sketch.</desc>
    <g id="Page-1" stroke="none" stroke-width="1" fill="none" fill-rule="evenodd">
        <g id="edit" fill="#9B9B9B" fill-rule="nonzero">
            <path d="M44.1919089,30.0774987 C43.5332528,30.0774987 42.999434,30.6139867 42.999434,31.275936 L42.999434,41.9167483 C42.9971049,43.90166 41.3970458,45.5101876 39.4220093,45.5120601 L5.96237453,45.5120601 C3.98733796,45.5101876 2.38727883,43.90166 2.38494981,41.9167483 L2.38494981,10.6866899 C2.38727883,8.70224629 3.98733796,7.09371876 5.96237453,7.09137809 L16.5502474,7.09137809 C17.2089035,7.09137809 17.7427223,6.55489009 17.7427223,5.89294081 C17.7427223,5.23145964 17.2089035,4.69450353 16.5502474,4.69450353 L5.96237453,4.69450353 C2.67095752,4.69824865 0.00372648408,7.37881572 0,10.6866899 L0,41.9172164 C0.00372648408,45.2250906 2.67095752,47.9056577 5.96237453,47.9094028 L39.4220093,47.9094028 C42.7134263,47.9056577 45.3806573,45.2250906 45.3843838,41.9172164 L45.3843838,31.275936 C45.3843838,30.6139867 44.8505649,30.0774987 44.1919089,30.0774987 Z" id="Path"></path>
            <path d="M44.9120519,1.6108682 C42.8163705,-0.495291597 39.4187486,-0.495291597 37.3230671,1.6108682 L16.0485695,22.9917383 C15.9027708,23.1382659 15.7974976,23.3199042 15.742532,23.5193316 L12.9448741,33.6700018 C12.8298189,34.0861778 12.9467372,34.5318467 13.2504458,34.8375418 C13.5546201,35.1427688 13.9980717,35.2602718 14.4121772,35.1451094 L24.5123465,32.3329952 C24.7107817,32.2777547 24.8915162,32.1719552 25.037315,32.0254274 L46.3113467,10.6440892 C48.4037675,8.53652495 48.4037675,5.12472382 46.3113467,3.01715945 L44.9120519,1.6108682 Z M18.6468605,23.7707225 L36.0583915,6.27166569 L41.6737372,11.9150881 L24.2617404,29.414145 L18.6468605,23.7707225 Z M17.5251888,26.0327729 L22.0114099,30.5418932 L15.8058822,32.2697963 L17.5251888,26.0327729 Z M44.6251126,8.94942398 L43.3604372,10.2204229 L37.7446257,4.57653236 L39.0097669,3.30553342 C40.1738274,2.13565262 42.0612916,2.13565262 43.2253521,3.30553342 L44.6251126,4.71182467 C45.7873099,5.88310991 45.7873099,7.77860697 44.6251126,8.94942398 L44.6251126,8.94942398 Z" id="Shape"></path>
        </g>
    </g>
</svg>