<?xml version="1.0" encoding="UTF-8"?>
<svg xmlns="http://www.w3.org/2000/svg" xmlns:xlink="http://www.w3.org/1999/xlink" width="48pt" height="48pt" viewBox="0 0 48 48" version="1.1">
<g id="surface161041">
<path style=" stroke:none;fill-rule:nonzero;fill:rgb(60.784314%,60.784314%,60.784314%);fill-opacity:1;" d="M 8 8 C 5.792969 8 4 9.792969 4 12 L 4 36 C 4 38.207031 5.792969 40 8 40 L 29.457031 40 L 25.457031 36 L 8 36 L 8 12 L 40 12 L 39.996094 29.453125 L 44 33.453125 L 44 12 C 44 9.792969 42.207031 8 40 8 Z M 26 26 L 26 30.886719 L 38.582031 43.46875 L 43.46875 38.578125 L 30.886719 26 Z M 45.199219 40.308594 L 40.308594 45.199219 L 42.753906 47.640625 C 43.230469 48.117188 44.003906 48.117188 44.480469 47.640625 L 47.640625 44.480469 C 48.117188 44.003906 48.117188 43.230469 47.640625 42.753906 Z M 45.199219 40.308594 "/>
</g>
</svg>
