<svg xmlns="http://www.w3.org/2000/svg" width="26" height="26" viewBox="0 0 26 26">
    <path fill="#FFF" fill-rule="evenodd" d="M12.998 0C5.821 0 0 5.843 0 13.052a13.05 13.05 0 0 0 8.892 12.384c.65.12.887-.283.887-.629 0-.31-.011-1.13-.018-2.22-3.615.789-4.379-1.75-4.379-1.75-.59-1.508-1.443-1.909-1.443-1.909-1.181-.81.088-.793.088-.793 1.305.093 1.99 1.345 1.99 1.345 1.16 1.994 3.044 1.42 3.785 1.084.117-.843.453-1.418.826-1.745-2.887-.33-5.922-1.45-5.922-6.45 0-1.425.507-2.59 1.339-3.503-.135-.33-.58-1.657.127-3.453 0 0 1.092-.351 3.575 1.337a12.403 12.403 0 0 1 3.255-.439c1.103.007 2.216.15 3.254.44 2.482-1.687 3.572-1.337 3.572-1.337.709 1.798.264 3.124.13 3.454.834.913 1.336 2.078 1.336 3.503 0 5.013-3.039 6.117-5.934 6.44.466.403.882 1.2.882 2.416 0 1.746-.016 3.153-.016 3.58 0 .35.234.756.893.628A13.052 13.052 0 0 0 26 13.052C26 5.843 20.18 0 12.998 0"/>
</svg>
