<svg xmlns="http://www.w3.org/2000/svg" xmlns:xlink="http://www.w3.org/1999/xlink" width="26" height="26" viewBox="0 0 26 26">
    <defs>
        <path id="a" d="M.003.014h5.76v12.139H.002z"/>
    </defs>
    <g fill="none" fill-rule="evenodd">
        <g transform="translate(0 7.008)">
            <mask id="b" fill="#fff">
                <use xlink:href="#a"/>
            </mask>
            <path fill="#F0B529" d="M5.762 8.704l-.905 3.379-3.308.07A12.942 12.942 0 0 1 0 5.993c0-2.157.524-4.19 1.454-5.98L4.4.554l1.29 2.928a7.727 7.727 0 0 0-.417 2.511c0 .954.173 1.869.49 2.712" mask="url(#b)"/>
        </g>
        <path fill="#5E7CB0" d="M25.773 10.571c.15.787.227 1.599.227 2.429 0 .93-.098 1.839-.284 2.714a12.997 12.997 0 0 1-4.577 7.424h-.001l-3.71-.19-.524-3.277a7.748 7.748 0 0 0 3.333-3.957h-6.951v-5.143h12.487"/>
        <path fill="#2FA948" d="M21.138 23.137A12.945 12.945 0 0 1 13 26c-4.95 0-9.255-2.767-11.45-6.84l4.212-3.448a7.73 7.73 0 0 0 11.142 3.959l4.234 3.466"/>
        <path fill="#DC4139" d="M21.298 2.993L17.086 6.44A7.732 7.732 0 0 0 5.69 10.489L1.454 7.02A12.997 12.997 0 0 1 13 0c3.154 0 6.046 1.124 8.298 2.993"/>
    </g>
</svg>
