<svg width="48" height="48" xmlns="http://www.w3.org/2000/svg">

 <g>
  <title>background</title>
  <rect fill="none" id="canvas_background" height="402" width="582" y="-1" x="-1"/>
 </g>
 <g>
  <title>Layer 1</title>
  <path id="svg_1" fill="none" d="m0,0l48,0l0,48l-48,0l0,-48z"/>
  <path fill="#9b9b9b" id="svg_2" opacity="0.9" d="m25.99,6c-9.95,0 -17.99,8.06 -17.99,18l-6,0l7.79,7.79l0.14,0.29l8.07,-8.08l-6,0c0,-7.73 6.27,-14 14,-14s14,6.27 14,14s-6.27,14 -14,14c-3.87,0 -7.36,-1.58 -9.89,-4.11l-2.83,2.83c3.25,3.26 7.74,5.28 12.71,5.28c9.95,0 18.01,-8.06 18.01,-18s-8.06,-18 -18.01,-18zm-1.99,10l0,10l8.56,5.08l1.44,-2.43l-7,-4.15l0,-8.5l-3,0z"/>
 </g>
</svg>