<?xml version="1.0" encoding="UTF-8"?>
<svg width="113px" height="123px" viewBox="0 0 113 123" version="1.1" xmlns="http://www.w3.org/2000/svg" xmlns:xlink="http://www.w3.org/1999/xlink">
    <!-- Generator: Sketch 57.1 (83088) - https://sketch.com -->
    <title>logout</title>
    <desc>Created with Sketch.</desc>
    <g id="Page-1" stroke="none" stroke-width="1" fill="none" fill-rule="evenodd">
        <g id="logout" fill="#979797" fill-rule="nonzero">
            <path d="M54.9517486,115.952037 L22.8530323,115.952037 C14.1297034,115.952037 7.05179283,108.851868 7.05179283,100.15938 L7.05179283,22.8406197 C7.05179283,14.1220289 14.1558212,7.04796265 22.8530323,7.04796265 L55.4741036,7.04796265 C57.4329349,7.04796265 59,5.48174873 59,3.52398132 C59,1.56621392 57.4329349,0 55.4741036,0 L22.8530323,0 C10.2381585,0 0,10.2587012 0,22.8406197 L0,100.15938 C0,112.767402 10.2642762,123 22.8530323,123 L54.9517486,123 C56.9105799,123 58.477645,121.433786 58.477645,119.476019 C58.477645,117.518251 56.8844622,115.952037 54.9517486,115.952037 Z" id="Path"></path>
            <path d="M111.978049,60.0337065 L89.850229,38.0198717 C88.483359,36.6600428 86.2912091,36.6600428 84.9243391,38.0198717 C83.5574691,39.3797007 83.5574691,41.5605584 84.9243391,42.9203874 L101.120459,59.0330776 L30.4816499,59.0330776 C28.5474,59.0330776 27,60.5725066 27,62.4967929 C27,64.4210791 28.5474,65.9605081 30.4816499,65.9605081 L101.120459,65.9605081 L84.9243391,82.0731983 C83.5574691,83.4330273 83.5574691,85.613885 84.9243391,86.973714 C85.5948791,87.6407999 86.4975291,88 87.3743891,88 C88.251249,88 89.153899,87.666457 89.824439,86.973714 L111.952259,64.9598793 C113.344919,63.5743932 113.344919,61.3678783 111.978049,60.0337065 Z" id="Path"></path>
        </g>
    </g>
</svg>