<!--suppress XmlDefaultAttributeValue -->
<svg xmlns="http://www.w3.org/2000/svg" width="20" height="20" viewBox="0 0 20 20">
    <path fill="#F68A4D" fill-rule="nonzero" d="M14.08 16.252h-1.573c-.092 1.182-.817 2.953-2.108 3.687a.461.461 0 0 1-.436.012c-1.456-.73-2.274-2.501-2.377-3.699H4.362a.54.54 0 0 1-.292-.085H1.48a.492.492 0 0 1-.48-.502V11.34c0-1.545 1.013-2.894 2.96-4.057C4.516 4.335 6.5 1.92 9.864.068a.54.54 0 0 1 .523 0c3.43 1.889 5.424 4.36 5.933 7.387C18.084 8.579 19 9.871 19 11.34v4.325a.492.492 0 0 1-.48.502h-2.341a.54.54 0 0 1-.292.085h-.808v.18a.501.501 0 0 1-.5.502.501.501 0 0 1-.5-.502v-.18zm2.364-7.504c.003.1.005.202.005.304v6.11h1.59V11.34c0-.9-.518-1.766-1.595-2.592zM3.812 8.56c-1.251.882-1.852 1.81-1.852 2.78v3.822H3.8v-6.11c0-.165.004-.33.012-.492zm7.73 7.692H8.553c.098.769.613 2.14 1.603 2.677.856-.53 1.302-1.9 1.386-2.677zM8.072 2.666H8.8c.31 0 .562.263.562.588a.575.575 0 0 1-.562.588H6.869C5.566 5.35 4.923 7.084 4.923 9.052v6.025h10.402V9.052c0-3.21-1.707-5.795-5.2-7.797-.771.442-1.455.912-2.053 1.41zm2.26 1.176a.575.575 0 0 1-.562-.588c0-.325.252-.588.562-.588h.48c.31 0 .562.263.562.588a.575.575 0 0 1-.562.588h-.48zm3.747 14.016c0-.277.224-.502.5-.502.277 0 .5.225.5.502v.437a.501.501 0 0 1-.5.503.501.501 0 0 1-.5-.503v-.437zm-8.644-.34c0-.277.224-.502.5-.502.277 0 .5.225.5.503v.973a.501.501 0 0 1-.5.503.501.501 0 0 1-.5-.503v-.973zm2.389-5.483A2.98 2.98 0 0 0 12.77 8.9l-2.242 2.798c-.212.264-.582.24-.766-.05l-.734-1.159-1.204 1.546zm-.594-.937l1.468-1.884c.21-.27.585-.248.77.044l.74 1.167 1.969-2.459a2.98 2.98 0 0 0-4.947 3.132zM10 14a4 4 0 1 1 0-8 4 4 0 0 1 0 8z"/>
</svg>
