<svg width="22" height="22" viewBox="0 0 22 22" fill="none" xmlns="http://www.w3.org/2000/svg">
<path fill-rule="evenodd" clip-rule="evenodd" d="M16.3947 5.30289C15.8622 4.77035 14.9987 4.77035 14.4662 5.30289L11.091 8.67808L7.7166 5.30367C7.18407 4.77113 6.32066 4.77113 5.78813 5.30367C5.2556 5.8362 5.2556 6.69961 5.78813 7.23214L9.16254 10.6066L5.78808 13.981C5.25555 14.5135 5.25555 15.377 5.78808 15.9095C6.32062 16.442 7.18402 16.442 7.71656 15.9095L11.091 12.535L14.4663 15.9103C14.9988 16.4428 15.8622 16.4428 16.3947 15.9103C16.9273 15.3777 16.9273 14.5143 16.3947 13.9818L13.0195 10.6066L16.3947 7.23136C16.9272 6.69883 16.9272 5.83542 16.3947 5.30289Z" fill="#FC5764"/>
</svg>
