<?xml version="1.0" encoding="UTF-8"?>
<svg xmlns="http://www.w3.org/2000/svg" xmlns:xlink="http://www.w3.org/1999/xlink" width="48pt" height="48pt" viewBox="0 0 48 48" version="1.1">
<g id="surface172210">
<path style=" stroke:none;fill-rule:nonzero;fill:rgb(60.784314%,60.784314%,60.784314%);fill-opacity:1;" d="M 34 6 L 10 6 C 7.78125 6 6 7.800781 6 10 L 6 38 C 6 40.199219 7.78125 42 10 42 L 38 42 C 40.199219 42 42 40.199219 42 38 L 42 14 Z M 24 38 C 20.679688 38 18 35.320312 18 32 C 18 28.679688 20.679688 26 24 26 C 27.320312 26 30 28.679688 30 32 C 30 35.320312 27.320312 38 24 38 Z M 30 18 L 10 18 L 10 10 L 30 10 Z M 30 18 "/>
</g>
</svg>
