<!--suppress XmlDefaultAttributeValue -->
<svg xmlns="http://www.w3.org/2000/svg" width="20" height="20" viewBox="0 0 20 20">
    <path fill="#979797" fill-rule="nonzero" d="M19.493 11.33a9.59 9.59 0 0 1-8.163 8.163c-.353.316-.82.507-1.33.507-.51 0-.977-.191-1.33-.507A9.59 9.59 0 0 1 .507 11.33 1.993 1.993 0 0 1 0 10c0-.51.191-.977.507-1.33A9.59 9.59 0 0 1 8.67.507C9.023.19 9.49 0 10 0c.51 0 .977.191 1.33.507a9.59 9.59 0 0 1 8.163 8.163c.316.353.507.82.507 1.33 0 .51-.191.977-.507 1.33zM13.267 11A1.99 1.99 0 0 1 13 10c0-.364.097-.705.267-.999a3.423 3.423 0 0 0-2.268-2.268A1.99 1.99 0 0 1 10 7a1.99 1.99 0 0 1-.999-.267 3.423 3.423 0 0 0-2.268 2.268c.17.294.267.635.267.999s-.097.705-.267.999a3.423 3.423 0 0 0 2.268 2.268A1.99 1.99 0 0 1 10 13c.364 0 .705.097.999.267a3.423 3.423 0 0 0 2.268-2.268zm4.91.993A2.026 2.026 0 0 1 18 12h-3c-.283 0-.553-.059-.797-.165a4.602 4.602 0 0 1-2.368 2.368c.106.244.165.514.165.797v3c0 .06-.003.12-.008.178a8.428 8.428 0 0 0 6.186-6.186zm0-3.984a8.428 8.428 0 0 0-6.185-6.186c.005.059.008.118.008.178v3c0 .283-.059.553-.165.797a4.602 4.602 0 0 1 2.368 2.368C14.447 8.06 14.717 8 15 8h3c.06 0 .12.003.178.008zM1.823 11.992a8.428 8.428 0 0 0 6.186 6.186A2.026 2.026 0 0 1 8 18v-3c0-.283.059-.553.165-.797a4.602 4.602 0 0 1-2.368-2.368A1.993 1.993 0 0 1 5 12H2c-.06 0-.12-.003-.178-.008zm0-3.984C1.881 8.003 1.94 8 2 8h3c.283 0 .553.059.797.165a4.602 4.602 0 0 1 2.368-2.368A1.993 1.993 0 0 1 8 5V2c0-.06.003-.12.008-.178a8.428 8.428 0 0 0-6.186 6.186zM10 1.17a.83.83 0 0 0-.83.83v3a.83.83 0 0 0 1.66 0V2a.83.83 0 0 0-.83-.83zm0 13a.83.83 0 0 0-.83.83v3a.83.83 0 0 0 1.66 0v-3a.83.83 0 0 0-.83-.83zm-8-5a.83.83 0 0 0 0 1.66h3a.83.83 0 0 0 0-1.66H2zm13 0a.83.83 0 0 0 0 1.66h3a.83.83 0 0 0 0-1.66h-3z"/>
</svg>
