<!--suppress XmlDefaultAttributeValue -->
<svg xmlns="http://www.w3.org/2000/svg" width="20" height="20" viewBox="0 0 20 20">
    <g fill="none" fill-rule="nonzero">
        <path d="M0 0h20v20H0z"/>
        <path fill="#9B9B9B" d="M8.652 11.585a6.488 6.488 0 0 0-5.844 3.67 2.203 2.203 0 0 0 1.985 3.16h10.413a2.203 2.203 0 0 0 1.985-3.16 6.488 6.488 0 0 0-5.844-3.67H8.652zm0-1.17h2.695c2.94 0 5.62 1.683 6.898 4.33a3.373 3.373 0 0 1-3.039 4.84H4.793a3.373 3.373 0 0 1-3.038-4.84 7.658 7.658 0 0 1 6.897-4.33zM10 1.585a3.415 3.415 0 1 0 0 6.83 3.415 3.415 0 0 0 0-6.83zm0-1.17a4.585 4.585 0 1 1 0 9.17 4.585 4.585 0 0 1 0-9.17z"/>
    </g>
</svg>
