<!--suppress XmlDefaultAttributeValue -->
<svg xmlns="http://www.w3.org/2000/svg" width="20" height="20" viewBox="0 0 20 20">
    <path fill="#F68A4D" fill-rule="nonzero" d="M4.546 1.16A3.386 3.386 0 0 0 1.16 4.546v2.975c0 .227.184.412.412.412h8.924a.412.412 0 0 0 .411-.412v-5.95a.412.412 0 0 0-.411-.41h-5.95zm0-1.16h5.95c.868 0 1.571.704 1.571 1.572v5.95c0 .867-.703 1.57-1.571 1.57H1.572A1.572 1.572 0 0 1 0 7.523V4.545A4.546 4.546 0 0 1 4.546 0zm4.958 12.067a.412.412 0 0 0-.411.412v5.95c0 .227.184.41.411.41h5.95a3.386 3.386 0 0 0 3.386-3.385v-2.975a.412.412 0 0 0-.412-.412H9.504zm0-1.16h8.924c.868 0 1.572.704 1.572 1.572v2.975A4.546 4.546 0 0 1 15.454 20h-5.95a1.572 1.572 0 0 1-1.571-1.572v-5.95c0-.867.703-1.57 1.571-1.57zm-7.932 1.16a.412.412 0 0 0-.412.412v4.462c0 1.049.85 1.899 1.899 1.899h1.487a.412.412 0 0 0 .412-.412v-5.95a.412.412 0 0 0-.412-.41H1.572zm0-1.16h2.974c.868 0 1.572.704 1.572 1.572v5.95c0 .867-.704 1.571-1.572 1.571H3.06A3.059 3.059 0 0 1 0 16.941v-4.462c0-.868.704-1.572 1.572-1.572zM15.454 1.16a.412.412 0 0 0-.412.412v5.95c0 .226.184.41.412.41h2.974a.412.412 0 0 0 .412-.41V3.058c0-1.049-.85-1.899-1.899-1.899h-1.487zm0-1.16h1.487C18.631 0 20 1.37 20 3.059v4.462c0 .868-.704 1.572-1.572 1.572h-2.974a1.572 1.572 0 0 1-1.572-1.572v-5.95c0-.867.704-1.571 1.572-1.571z"/>
</svg>
