<svg xmlns="http://www.w3.org/2000/svg" width="18" height="18" viewBox="0 0 18 18">
    <path fill="#9B9B9B" fill-rule="nonzero" d="M3.482 2.068l4.175 4.175a1 1 0 0 1-1.414 1.414L2.068 3.482A2.003 2.003 0 0 0 2 4v2a1 1 0 1 1-2 0V4a4 4 0 0 1 4-4h2a1 1 0 1 1 0 2H4c-.18 0-.353.024-.518.068zm11.036 13.864l-4.225-4.225a1 1 0 0 1 1.414-1.414l4.225 4.225c.044-.165.068-.339.068-.518v-2a1 1 0 0 1 2 0v2a4 4 0 0 1-4 4h-2a1 1 0 0 1 0-2h2c.18 0 .353-.024.518-.068zM12 0h2a4 4 0 0 1 4 4v2a1 1 0 0 1-2 0V4a2 2 0 0 0-2-2h-2a1 1 0 0 1 0-2zM6 18H4a4 4 0 0 1-4-4v-2a1 1 0 0 1 2 0v2a2 2 0 0 0 2 2h2a1 1 0 0 1 0 2z"/>
</svg>
