<svg xmlns="http://www.w3.org/2000/svg" width="20" height="20" viewBox="0 0 20 20">
    <path fill="#979797" fill-rule="nonzero" d="M11.76 10.4l2.466 2.642a.514.514 0 0 1-.017.715.489.489 0 0 1-.7-.017l-3.372-3.612a.514.514 0 0 1 0-.699l3.371-3.612a.489.489 0 0 1 .701-.017.514.514 0 0 1 .017.715l-2.52 2.7h3.748c2.51 0 4.546 2.079 4.546 4.642v1.502C20 17.922 17.965 20 15.454 20h-3.78c-2.51 0-4.546-2.078-4.546-4.641V4.641C7.128 2.078 9.163 0 11.674 0h3.78C17.964 0 20 2.078 20 4.641v.795c0 .327-.26.592-.58.592a.586.586 0 0 1-.58-.592V4.64c0-1.91-1.516-3.457-3.386-3.457h-3.78c-1.87 0-3.386 1.548-3.386 3.457v10.718c0 1.91 1.516 3.457 3.386 3.457h3.78c1.87 0 3.386-1.548 3.386-3.457v-1.502c0-1.91-1.516-3.457-3.386-3.457H11.76zM2.564 1.24c-.775 0-1.403.641-1.403 1.432v14.712c0 .791.628 1.433 1.403 1.433s1.403-.642 1.403-1.433V2.671c0-.79-.628-1.432-1.403-1.432zm0-1.184c1.416 0 2.563 1.171 2.563 2.616v14.712C5.126 18.83 3.98 20 2.563 20 1.148 20 0 18.829 0 17.383V2.671C0 1.226 1.148.055 2.563.055z"/>
</svg>
