<?xml version="1.0" encoding="UTF-8"?>
<svg width="183px" height="50px" viewBox="0 0 183 50" version="1.1" xmlns="http://www.w3.org/2000/svg" xmlns:xlink="http://www.w3.org/1999/xlink">
    <!-- Generator: Sketch 53.2 (72643) - https://sketchapp.com -->
    <title>feynlab-logo</title>
    <desc>Created with Sketch.</desc>
    <defs>
        <linearGradient x1="99.87691%" y1="49.9973608%" x2="-0.00474137615%" y2="49.9973608%" id="linearGradient-1">
            <stop stop-color="#F68A4D" offset="2.524386%"></stop>
            <stop stop-color="#C95B6E" offset="97.43%"></stop>
        </linearGradient>
    </defs>
    <g id="Page-1" stroke="none" stroke-width="1" fill="none" fill-rule="evenodd">
        <g id="feynlab-logo" fill-rule="nonzero">
            <g id="Symbols" fill="url(#linearGradient-1)">
                <g id="logo">
                    <g id="feynlab-amblem">
                        <path d="M43.5,23.5 L35.7,28.3 L35.7,19.8 C35.7,18.2 34.9,16.8 33.6,16 L23.1,9.7 C22.8,9.5 22.4,9.4 22.1,9.3 C21.4,9.2 20.7,9.3 20.1,9.7 L9,16.4 C7.7,17.2 6.9,18.6 6.9,20.2 L6.9,29.8 C6.9,29.8 6.9,29.9 6.9,29.9 L6.9,41.3 L1,37.9 C0.4,37.5 0,36.9 0,36.2 L0,13.8 C0,13.1 0.4,12.4 1,12.1 L20.8,0.6 C21.4,0.2 22.2,0.2 22.8,0.6 L42.6,12.1 C43.2,12.5 43.6,13.1 43.6,13.8 L43.6,23.5 L43.5,23.5 Z M43.5,30.2 L43.5,36.2 C43.5,36.9 43.1,37.6 42.5,37.9 L22.8,49.4 C22.2,49.8 21.4,49.8 20.8,49.4 L12.5,44.6 L12.5,34.7 L20.1,39.1 C21.4,39.9 23.2,39.4 24,38.1 C24.8,36.8 24.3,35 23,34.2 L12.5,28.1 L12.5,20.7 L21.6,15.2 L30.1,20.4 L30.1,31.8 C30.1,32.5 30.3,33.1 30.6,33.7 C31.6,35.4 33.9,35.9 35.6,34.9 L43.5,30.2 Z" id="Shape"></path>
                    </g>
                </g>
            </g>
            <g id="Group" transform="translate(53.000000, 11.000000)" fill="#000000">
                <path d="M0.8,7 C0.8,4.9 1.4,3.4 2.5,2.5 C3.6,1.6 5,1.1 6.6,1.1 C11.1,1.1 14.7,1.3 17.4,1.5 L17.4,5.8 L7.9,5.8 C7.2,5.8 6.7,6 6.3,6.4 C5.9,6.8 5.8,7.3 5.8,7.9 L5.8,12.3 L15.7,12.6 L15.7,16.6 L5.8,16.9 L5.8,26.7 L0.8,26.7 L0.8,7 L0.8,7 Z" id="Path"></path>
                <path d="M22.2,26.1 C21,25.5 20.2,24.6 19.6,23.2 C19,21.8 18.8,19.9 18.8,17.5 C18.8,15 19,13 19.5,11.6 C20,10.2 20.8,9.3 22,8.7 C23.1,8.1 24.8,7.9 26.8,7.9 C28.7,7.9 30.1,8.1 31.2,8.5 C32.3,8.9 33,9.5 33.5,10.4 C34,11.3 34.2,12.6 34.2,14.3 C34.2,16.1 33.7,17.4 32.7,18.1 C31.7,18.9 30.2,19.2 28.3,19.2 L23.7,19.2 C23.7,20.2 23.9,21 24.1,21.5 C24.3,22 24.8,22.4 25.4,22.7 C26,22.9 27,23.1 28.2,23.1 L33.5,23.1 L33.5,26.1 C32.3,26.4 31.2,26.6 30.2,26.7 C29.2,26.8 28.1,26.9 26.8,26.9 C25,26.9 23.4,26.6 22.2,26.1 Z M27.9,16.2 C28.6,16.2 29.1,16.1 29.4,15.8 C29.7,15.5 29.9,15 29.9,14.3 C29.9,13.3 29.7,12.6 29.2,12.2 C28.7,11.8 28,11.6 26.9,11.6 C26.1,11.6 25.5,11.7 25.1,12 C24.7,12.3 24.3,12.7 24.1,13.4 C23.9,14.1 23.8,15 23.8,16.2 L27.9,16.2 L27.9,16.2 Z" id="Shape"></path>
                <path d="M45,26.7 C42,26.7 40.1,25 39.2,21.7 L35.8,8.1 L41,8.1 L43.9,20.7 C44.1,21.5 44.4,21.9 44.7,22.2 C45.1,22.4 45.4,22.5 45.9,22.6 L49.2,8.2 L54.3,8.2 L48.9,31.5 L47.3,34.9 L43,34.9 L45,26.7 Z" id="Path"></path>
                <path d="M56.6,8.1 L60.7,8.1 L61.6,10 C62.3,9.4 63.2,8.9 64.3,8.4 C65.3,8 66.4,7.8 67.4,7.8 C69.5,7.8 70.9,8.4 71.8,9.6 C72.7,10.8 73.1,12.4 73.1,14.4 L73.1,26.6 L68.1,26.6 L68.1,15.1 C68.1,14.2 67.9,13.6 67.4,13.1 C66.9,12.6 66.3,12.4 65.5,12.4 C64.3,12.4 63,12.9 61.7,13.8 L61.7,26.7 L56.7,26.7 L56.7,8.1 L56.6,8.1 Z" id="Path"></path>
                <path d="M78.5,25.3 C77.5,24.4 77,22.8 77,20.7 L77,1.1 L82,1.1 L82,19.8 C82,21.3 82.7,22 84.2,22 L92.1,22 L92.1,26.6 L82.8,26.6 C80.9,26.7 79.4,26.2 78.5,25.3 Z" id="Path"></path>
                <path d="M95.4,25.7 C94.6,24.9 94.1,23.7 94.1,22.3 L94.1,20.6 C94.1,19.1 94.6,17.9 95.6,17.1 C96.6,16.2 98.1,15.8 100.1,15.8 L104.7,15.8 L104.7,14.5 C104.7,13.9 104.6,13.4 104.4,13 C104.2,12.6 103.8,12.4 103.2,12.2 C102.6,12 101.8,11.9 100.7,11.9 L95.2,11.9 L95.2,8.9 C97.4,8.2 99.9,7.9 102.5,7.9 C104.9,7.9 106.7,8.4 107.9,9.3 C109.1,10.2 109.7,11.8 109.7,14.1 L109.7,26.7 L105.7,26.7 L104.9,24.7 C104.7,25 104.2,25.3 103.6,25.6 C103,25.9 102.2,26.2 101.3,26.5 C100.4,26.8 99.5,26.9 98.6,26.9 C97.4,26.9 96.2,26.5 95.4,25.7 Z M103.3,23 C104.1,22.8 104.6,22.6 104.8,22.5 L104.8,18.2 L101.7,18.4 C100,18.5 99.1,19.3 99.1,20.7 L99.1,21.5 C99.1,22.8 99.8,23.5 101.3,23.5 C101.9,23.4 102.5,23.2 103.3,23 Z" id="Shape"></path>
                <path d="M120.9,26.4 C120.1,26.1 119.3,25.6 118.5,24.9 L117.7,26.7 L113.5,26.7 L113.5,0.3 L118.5,0.3 L118.5,9.4 C119.3,9 120.1,8.6 121,8.3 C121.9,8 122.7,7.9 123.5,7.9 C125.1,7.9 126.3,8.2 127.2,8.9 C128.1,9.6 128.8,10.6 129.3,12 C129.7,13.4 129.9,15.3 129.9,17.7 C129.9,20.8 129.4,23.2 128.4,24.7 C127.4,26.2 125.8,27 123.7,27 C122.7,26.9 121.8,26.7 120.9,26.4 Z M124.2,21.5 C124.7,20.7 125,19.3 125,17.4 C125,15.9 124.9,14.8 124.6,14 C124.3,13.2 124,12.7 123.5,12.4 C123.1,12.1 122.5,12 121.9,12 C120.8,12 119.7,12.3 118.5,13 L118.5,21.8 C119.6,22.4 120.7,22.7 121.9,22.7 C122.9,22.7 123.7,22.3 124.2,21.5 Z" id="Shape"></path>
            </g>
        </g>
    </g>
</svg>